<svg width="24" height="24" viewBox="0 0 24 24" fill="none" xmlns="http://www.w3.org/2000/svg">
<path d="M18.59 11.09C19.64 11.6 20.63 12.24 21.55 13L20.48 14.07C19.9 13.6 19.27 13.18 18.6 12.8V11.09M5.4 11.09V12.79C4.75 13.16 4.12 13.58 3.53 14.06L2.46 12.99C3.37 12.24 4.36 11.61 5.4 11.09ZM12 7.57001C7.46 7.57001 3.34 9.35001 0.29 12.24C0.11 12.42 0 12.67 0 12.95C0 13.23 0.11 13.48 0.29 13.65L2.77 16.13C2.95 16.31 3.2 16.42 3.48 16.42C3.75 16.42 4 16.32 4.18 16.14C4.97 15.41 5.86 14.78 6.84 14.29C7.17 14.13 7.4 13.78 7.4 13.39V10.29C8.85 9.82001 10.4 9.57001 12 9.57001C13.6 9.57001 15.15 9.82001 16.59 10.3V13.4C16.59 13.8 16.82 14.14 17.15 14.3C18.13 14.79 19.03 15.41 19.82 16.15C20 16.32 20.25 16.43 20.52 16.43C20.8 16.43 21.05 16.32 21.23 16.14L23.71 13.66C23.89 13.48 24 13.23 24 12.95C24 12.67 23.89 12.42 23.71 12.24C20.66 9.35001 16.54 7.57001 12 7.57001Z" fill="white"/>
<path d="M18 11L21.5 12L22.5 14L20.5 15L18.5 13.5L18 11Z" fill="white" stroke="white"/>
<path d="M6 10.5L2.5 11.5L1.5 13.5L3.5 14.5L5.5 13L6 10.5Z" fill="white" stroke="white"/>
</svg>
