<svg width="44" height="44" viewBox="0 0 44 44" fill="none" xmlns="http://www.w3.org/2000/svg">
<rect x="5.00018" y="5" width="34" height="34" fill="#4285F4"/>
<rect x="5.00018" y="5" width="34" height="34" stroke="#4285F4" stroke-width="10" stroke-linejoin="round"/>
<path d="M30.0002 17V27H14.0002V17H30.0002ZM30.0002 15H14.0002C12.9002 15 12.0102 15.9 12.0102 17L12.0002 27C12.0002 28.1 12.9002 29 14.0002 29H30.0002C31.1002 29 32.0002 28.1 32.0002 27V17C32.0002 15.9 31.1002 15 30.0002 15ZM21.0002 18H23.0002V20H21.0002V18ZM21.0002 21H23.0002V23H21.0002V21ZM18.0002 18H20.0002V20H18.0002V18ZM18.0002 21H20.0002V23H18.0002V21ZM15.0002 21H17.0002V23H15.0002V21ZM15.0002 18H17.0002V20H15.0002V18ZM18.0002 24H26.0002V26H18.0002V24ZM24.0002 21H26.0002V23H24.0002V21ZM24.0002 18H26.0002V20H24.0002V18ZM27.0002 21H29.0002V23H27.0002V21ZM27.0002 18H29.0002V20H27.0002V18Z" fill="white"/>
</svg>
