<svg width="229" height="25" viewBox="0 0 229 25" fill="none" xmlns="http://www.w3.org/2000/svg">
<path d="M21.0832 16.7975V14.8808L12.9373 10.0892V4.81835C12.9373 4.02293 12.2953 3.38085 11.4998 3.38085C10.7044 3.38085 10.0623 4.02293 10.0623 4.81835V10.0892L1.9165 14.8808V16.7975L10.0623 14.4017V19.6725L7.6665 21.11V22.5475L11.4998 21.5892L15.3332 22.5475V21.11L12.9373 19.6725V14.4017L21.0832 16.7975Z" fill="black"/>
<path d="M23.5727 8.78346H27.1103L30.2767 16.1063L31.1018 18.1588L31.9269 16.1063L35.0933 8.78346H38.631L32.8655 20.9642H29.3381L23.5727 8.78346ZM42.3749 7.13324C42.0724 7.13324 41.7973 7.09199 41.5498 7.00947C41.3091 6.92009 41.1029 6.8032 40.931 6.6588C40.7591 6.50753 40.625 6.33563 40.5287 6.14311C40.4393 5.9437 40.3946 5.73399 40.3946 5.51396C40.3946 5.28705 40.4393 5.07734 40.5287 4.88481C40.625 4.68541 40.7591 4.51351 40.931 4.36912C41.1029 4.22472 41.3091 4.11127 41.5498 4.02876C41.7973 3.93937 42.0724 3.89468 42.3749 3.89468C42.6843 3.89468 42.9594 3.93937 43.2 4.02876C43.4476 4.11127 43.6573 4.22472 43.8292 4.36912C44.0011 4.51351 44.1317 4.68541 44.2211 4.88481C44.3174 5.07734 44.3655 5.28705 44.3655 5.51396C44.3655 5.73399 44.3174 5.9437 44.2211 6.14311C44.1317 6.33563 44.0011 6.50753 43.8292 6.6588C43.6573 6.8032 43.4476 6.92009 43.2 7.00947C42.9594 7.09199 42.6843 7.13324 42.3749 7.13324ZM40.8485 8.79378H43.9014V20.9642H40.8485V8.79378ZM48.3054 17.2305C49.1305 17.7256 50.0381 18.09 51.0283 18.3238C52.0184 18.5576 53.0326 18.6745 54.0709 18.6745C54.7722 18.6745 55.3567 18.6264 55.8242 18.5301C56.2918 18.4338 56.6665 18.3101 56.9484 18.1588C57.2304 18.0075 57.4298 17.8356 57.5467 17.6431C57.6635 17.4506 57.722 17.2546 57.722 17.0552C57.722 16.7664 57.5948 16.5189 57.3404 16.3126C57.0928 16.1063 56.6803 16.0032 56.1027 16.0032C55.8345 16.0032 55.5458 16.0204 55.2363 16.0548C54.9269 16.0891 54.6003 16.127 54.2565 16.1682C53.9196 16.2026 53.5655 16.237 53.1942 16.2714C52.8298 16.3057 52.4585 16.3229 52.0803 16.3229C51.2552 16.3229 50.5504 16.2335 49.9659 16.0548C49.3884 15.876 48.9174 15.6319 48.5529 15.3225C48.1885 15.0131 47.9238 14.6486 47.7588 14.2292C47.5937 13.8029 47.5112 13.3456 47.5112 12.8575C47.5112 12.2386 47.6556 11.6679 47.9444 11.1453C48.2332 10.6228 48.6458 10.1724 49.1821 9.79423C49.7184 9.40917 50.3647 9.11007 51.1211 8.89692C51.8843 8.68376 52.7335 8.57719 53.6686 8.57719C54.1568 8.57719 54.6656 8.60813 55.1951 8.67001C55.7314 8.72502 56.2574 8.80065 56.7731 8.89692C57.2888 8.99318 57.7839 9.10663 58.2583 9.23728C58.7328 9.36104 59.1522 9.49512 59.5166 9.63952L58.5574 12.0117C57.7804 11.7229 57.0035 11.496 56.2265 11.331C55.4564 11.1591 54.6622 11.0732 53.844 11.0732C53.2733 11.0732 52.7885 11.1178 52.3897 11.2072C51.9978 11.2897 51.678 11.4032 51.4305 11.5476C51.183 11.6851 51.0008 11.8467 50.8839 12.0323C50.7739 12.2111 50.7189 12.4002 50.7189 12.5996C50.7189 12.744 50.7464 12.8746 50.8014 12.9915C50.8632 13.1084 50.9595 13.2116 51.0902 13.301C51.2277 13.3835 51.403 13.4488 51.6162 13.4969C51.8362 13.5382 52.1044 13.5588 52.4206 13.5588C52.7094 13.5588 53.0154 13.5416 53.3386 13.5072C53.6618 13.4729 53.9987 13.4385 54.3493 13.4041C54.7 13.3628 55.061 13.325 55.4323 13.2906C55.8105 13.2563 56.1955 13.2391 56.5875 13.2391C57.3163 13.2391 57.9523 13.325 58.4955 13.4969C59.0456 13.6688 59.4994 13.9095 59.857 14.2189C60.2145 14.5283 60.4827 14.8927 60.6615 15.3122C60.8402 15.7316 60.9296 16.1888 60.9296 16.6839C60.9296 17.3234 60.7818 17.9181 60.4861 18.4682C60.1904 19.0183 59.7504 19.4962 59.1659 19.9018C58.5815 20.3007 57.8526 20.6135 56.9794 20.8404C56.113 21.0673 55.1091 21.1808 53.9677 21.1808C53.2664 21.1808 52.5891 21.1361 51.9359 21.0467C51.2827 20.9642 50.6604 20.8507 50.0691 20.7063C49.4777 20.5551 48.9208 20.3797 48.3982 20.1803C47.8825 19.9809 47.4115 19.7678 46.9852 19.5409L48.3054 17.2305ZM63.1058 17.1274C63.1058 16.543 63.2331 16.0101 63.4875 15.5288C63.7419 15.0474 64.1235 14.6349 64.6323 14.2911C65.1411 13.9404 65.7737 13.6723 66.5301 13.4866C67.2933 13.2941 68.1803 13.1978 69.191 13.1978C69.9405 13.1978 70.7278 13.2528 71.5529 13.3628C72.3849 13.4729 73.241 13.6413 74.1211 13.8682C74.0867 13.4832 73.9698 13.1291 73.7704 12.8059C73.571 12.4758 73.2925 12.1939 72.935 11.9601C72.5843 11.7195 72.158 11.5338 71.6561 11.4032C71.161 11.2726 70.5972 11.2072 69.9646 11.2072C69.6208 11.2072 69.2426 11.2279 68.8301 11.2691C68.4175 11.3104 67.9912 11.3723 67.5511 11.4548C67.1111 11.5373 66.6745 11.6404 66.2413 11.7642C65.815 11.8879 65.4162 12.0358 65.0449 12.2077L64.1166 9.7014C64.5773 9.53638 65.0689 9.38511 65.5915 9.24759C66.1209 9.11007 66.6607 8.99318 67.2108 8.89692C67.7609 8.79378 68.3109 8.71471 68.861 8.6597C69.4111 8.60469 69.944 8.57719 70.4597 8.57719C72.7356 8.57719 74.4271 9.1582 75.5341 10.3202C76.6411 11.4823 77.1946 13.2631 77.1946 15.6628V20.9642H74.1417V19.8193C73.8254 20.005 73.4782 20.1803 73.1 20.3453C72.7287 20.5104 72.323 20.6548 71.883 20.7785C71.4429 20.9023 70.9685 20.9986 70.4597 21.0673C69.9577 21.143 69.4248 21.1808 68.861 21.1808C67.9121 21.1808 67.0767 21.0776 66.3547 20.8714C65.6396 20.6651 65.0414 20.3797 64.5601 20.0153C64.0788 19.6509 63.7144 19.2246 63.4668 18.7364C63.2262 18.2413 63.1058 17.705 63.1058 17.1274ZM66.3238 17.0243C66.3238 17.2237 66.3754 17.4162 66.4785 17.6018C66.5816 17.7806 66.7467 17.9422 66.9736 18.0866C67.2005 18.2241 67.4893 18.3376 67.8399 18.427C68.1975 18.5095 68.6272 18.5507 69.1292 18.5507C69.6655 18.5507 70.1846 18.5026 70.6866 18.4063C71.1885 18.3101 71.6561 18.1829 72.0893 18.0247C72.5224 17.8666 72.9144 17.6844 73.265 17.4781C73.6157 17.2718 73.9079 17.0587 74.1417 16.8386V16.3023C73.6742 16.1717 73.21 16.0616 72.7493 15.9723C72.2955 15.8829 71.8589 15.8141 71.4395 15.766C71.0269 15.711 70.635 15.6731 70.2637 15.6525C69.8993 15.6319 69.5795 15.6216 69.3045 15.6216C68.7338 15.6216 68.2594 15.6594 67.8812 15.735C67.503 15.8107 67.197 15.9138 66.9632 16.0445C66.7295 16.1682 66.5644 16.316 66.4682 16.4879C66.3719 16.6598 66.3238 16.8386 66.3238 17.0243ZM205.376 17.1274C205.376 16.543 205.503 16.0101 205.757 15.5288C206.012 15.0474 206.393 14.6349 206.902 14.2911C207.411 13.9404 208.044 13.6723 208.8 13.4866C209.563 13.2941 210.45 13.1978 211.461 13.1978C212.21 13.1978 212.998 13.2528 213.823 13.3628C214.655 13.4729 215.511 13.6413 216.391 13.8682C216.357 13.4832 216.24 13.1291 216.04 12.8059C215.841 12.4758 215.562 12.1939 215.205 11.9601C214.854 11.7195 214.428 11.5338 213.926 11.4032C213.431 11.2726 212.867 11.2072 212.235 11.2072C211.891 11.2072 211.513 11.2279 211.1 11.2691C210.687 11.3104 210.261 11.3723 209.821 11.4548C209.381 11.5373 208.944 11.6404 208.511 11.7642C208.085 11.8879 207.686 12.0358 207.315 12.2077L206.387 9.7014C206.847 9.53638 207.339 9.38511 207.861 9.24759C208.391 9.11007 208.931 8.99318 209.481 8.89692C210.031 8.79378 210.581 8.71471 211.131 8.6597C211.681 8.60469 212.214 8.57719 212.73 8.57719C215.006 8.57719 216.697 9.1582 217.804 10.3202C218.911 11.4823 219.465 13.2631 219.465 15.6628V20.9642H216.412V19.8193C216.095 20.005 215.748 20.1803 215.37 20.3453C214.999 20.5104 214.593 20.6548 214.153 20.7785C213.713 20.9023 213.238 20.9986 212.73 21.0673C212.228 21.143 211.695 21.1808 211.131 21.1808C210.182 21.1808 209.347 21.0776 208.625 20.8714C207.91 20.6651 207.311 20.3797 206.83 20.0153C206.349 19.6509 205.984 19.2246 205.737 18.7364C205.496 18.2413 205.376 17.705 205.376 17.1274ZM208.594 17.0243C208.594 17.2237 208.645 17.4162 208.748 17.6018C208.852 17.7806 209.017 17.9422 209.243 18.0866C209.47 18.2241 209.759 18.3376 210.11 18.427C210.467 18.5095 210.897 18.5507 211.399 18.5507C211.935 18.5507 212.455 18.5026 212.956 18.4063C213.458 18.3101 213.926 18.1829 214.359 18.0247C214.792 17.8666 215.184 17.6844 215.535 17.4781C215.886 17.2718 216.178 17.0587 216.412 16.8386V16.3023C215.944 16.1717 215.48 16.0616 215.019 15.9723C214.565 15.8829 214.129 15.8141 213.709 15.766C213.297 15.711 212.905 15.6731 212.534 15.6525C212.169 15.6319 211.849 15.6216 211.574 15.6216C211.004 15.6216 210.529 15.6594 210.151 15.735C209.773 15.8107 209.467 15.9138 209.233 16.0445C208.999 16.1682 208.834 16.316 208.738 16.4879C208.642 16.6598 208.594 16.8386 208.594 17.0243ZM225.117 7.13324C224.814 7.13324 224.539 7.09199 224.291 7.00947C224.051 6.92009 223.845 6.8032 223.673 6.6588C223.501 6.50753 223.367 6.33563 223.27 6.14311C223.181 5.9437 223.136 5.73399 223.136 5.51396C223.136 5.28705 223.181 5.07734 223.27 4.88481C223.367 4.68541 223.501 4.51351 223.673 4.36912C223.845 4.22472 224.051 4.11127 224.291 4.02876C224.539 3.93937 224.814 3.89468 225.117 3.89468C225.426 3.89468 225.701 3.93937 225.942 4.02876C226.189 4.11127 226.399 4.22472 226.571 4.36912C226.743 4.51351 226.873 4.68541 226.963 4.88481C227.059 5.07734 227.107 5.28705 227.107 5.51396C227.107 5.73399 227.059 5.9437 226.963 6.14311C226.873 6.33563 226.743 6.50753 226.571 6.6588C226.399 6.8032 226.189 6.92009 225.942 7.00947C225.701 7.09199 225.426 7.13324 225.117 7.13324ZM223.59 8.79378H226.643V20.9642H223.59V8.79378Z" fill="#2D81F7"/>
<path d="M82.8466 7.13324C82.5441 7.13324 82.2691 7.09199 82.0215 7.00947C81.7809 6.92009 81.5746 6.8032 81.4027 6.6588C81.2308 6.50753 81.0967 6.33563 81.0005 6.14311C80.9111 5.9437 80.8664 5.73399 80.8664 5.51396C80.8664 5.28705 80.9111 5.07734 81.0005 4.88481C81.0967 4.68541 81.2308 4.51351 81.4027 4.36912C81.5746 4.22472 81.7809 4.11127 82.0215 4.02876C82.2691 3.93937 82.5441 3.89468 82.8466 3.89468C83.1561 3.89468 83.4311 3.93937 83.6718 4.02876C83.9193 4.11127 84.129 4.22472 84.3009 4.36912C84.4728 4.51351 84.6034 4.68541 84.6928 4.88481C84.7891 5.07734 84.8372 5.28705 84.8372 5.51396C84.8372 5.73399 84.7891 5.9437 84.6928 6.14311C84.6034 6.33563 84.4728 6.50753 84.3009 6.6588C84.129 6.8032 83.9193 6.92009 83.6718 7.00947C83.4311 7.09199 83.1561 7.13324 82.8466 7.13324ZM81.3202 8.79378H84.3731V20.9642H81.3202V8.79378ZM88.2924 8.79378H91.3453V9.82517C92.1567 9.36448 92.9302 9.04131 93.6659 8.85566C94.4085 8.67001 95.1339 8.57719 95.8422 8.57719C96.7704 8.57719 97.6299 8.71471 98.4206 8.98974C99.2114 9.2579 99.8955 9.66015 100.473 10.1965C101.051 10.7328 101.501 11.4032 101.824 12.2077C102.154 13.0053 102.319 13.9301 102.319 14.9821V20.9642H99.2767V15.4772C99.2767 14.8102 99.1804 14.2155 98.9879 13.6929C98.8023 13.1634 98.5307 12.7199 98.1731 12.3624C97.8224 11.998 97.3927 11.7229 96.8839 11.5373C96.3819 11.3447 95.8181 11.2485 95.1924 11.2485C94.8623 11.2485 94.522 11.2829 94.1713 11.3516C93.8275 11.4204 93.4872 11.5201 93.1502 11.6507C92.8202 11.7745 92.5005 11.9326 92.191 12.1252C91.8816 12.3108 91.5997 12.524 91.3453 12.7646V20.9642H88.2924V8.79378ZM107.909 11.0835H104.97V8.79378H107.909V5.00858H110.962V8.79378H113.902V11.0835H110.962V20.9642H107.909V11.0835ZM116.037 14.8377C116.037 14.0126 116.205 13.2253 116.542 12.4758C116.879 11.7195 117.364 11.0525 117.996 10.4749C118.629 9.89737 119.403 9.43668 120.317 9.09288C121.238 8.74909 122.284 8.57719 123.452 8.57719C124.615 8.57719 125.66 8.75252 126.588 9.1032C127.523 9.44699 128.314 9.92143 128.96 10.5265C129.613 11.1316 130.112 11.8433 130.456 12.6615C130.806 13.4797 130.982 14.3564 130.982 15.2915C130.982 15.4084 130.978 15.5356 130.971 15.6731C130.971 15.8038 130.964 15.9241 130.951 16.0341H119.44C119.571 16.3986 119.781 16.732 120.07 17.0346C120.365 17.3371 120.733 17.5984 121.173 17.8184C121.613 18.0385 122.122 18.2104 122.7 18.3341C123.277 18.451 123.917 18.5095 124.618 18.5095C125.319 18.5095 126.017 18.4373 126.712 18.2929C127.406 18.1416 128.07 17.9525 128.702 17.7256L129.734 20.0566C129.335 20.2422 128.929 20.4072 128.517 20.5516C128.111 20.6891 127.685 20.806 127.238 20.9023C126.798 20.9917 126.333 21.0604 125.845 21.1086C125.364 21.1567 124.855 21.1808 124.319 21.1808C122.951 21.1808 121.751 21.0157 120.719 20.6857C119.688 20.3557 118.825 19.9053 118.13 19.3346C117.436 18.7639 116.913 18.0935 116.563 17.3234C116.212 16.5533 116.037 15.7247 116.037 14.8377ZM127.743 13.6516C127.633 13.3147 127.461 13.0018 127.227 12.7131C127 12.4174 126.715 12.163 126.371 11.9498C126.028 11.7298 125.629 11.5579 125.175 11.4341C124.721 11.3104 124.223 11.2485 123.679 11.2485C123.102 11.2485 122.576 11.3138 122.101 11.4445C121.627 11.5751 121.211 11.7504 120.853 11.9705C120.496 12.1905 120.197 12.4449 119.956 12.7337C119.722 13.0225 119.55 13.3285 119.44 13.6516H127.743ZM134.272 8.79378H137.325V10.5471C137.999 10.0452 138.71 9.61201 139.46 9.24759C140.209 8.88317 140.955 8.60469 141.698 8.41216L142.595 11.2072C141.419 11.3241 140.384 11.5888 139.491 12.0014C138.604 12.4071 137.882 12.9812 137.325 13.7238V20.9642H134.272V8.79378ZM143.193 8.78346H146.731L149.897 16.1063L150.722 18.1588L151.548 16.1063L154.714 8.78346H158.252L152.486 20.9642H148.959L143.193 8.78346ZM161.996 7.13324C161.693 7.13324 161.418 7.09199 161.17 7.00947C160.93 6.92009 160.723 6.8032 160.552 6.6588C160.38 6.50753 160.246 6.33563 160.149 6.14311C160.06 5.9437 160.015 5.73399 160.015 5.51396C160.015 5.28705 160.06 5.07734 160.149 4.88481C160.246 4.68541 160.38 4.51351 160.552 4.36912C160.723 4.22472 160.93 4.11127 161.17 4.02876C161.418 3.93937 161.693 3.89468 161.996 3.89468C162.305 3.89468 162.58 3.93937 162.821 4.02876C163.068 4.11127 163.278 4.22472 163.45 4.36912C163.622 4.51351 163.752 4.68541 163.842 4.88481C163.938 5.07734 163.986 5.28705 163.986 5.51396C163.986 5.73399 163.938 5.9437 163.842 6.14311C163.752 6.33563 163.622 6.50753 163.45 6.6588C163.278 6.8032 163.068 6.92009 162.821 7.00947C162.58 7.09199 162.305 7.13324 161.996 7.13324ZM160.469 8.79378H163.522V20.9642H160.469V8.79378ZM166.864 14.8377C166.864 14.0126 167.032 13.2253 167.369 12.4758C167.706 11.7195 168.191 11.0525 168.823 10.4749C169.456 9.89737 170.229 9.43668 171.144 9.09288C172.065 8.74909 173.11 8.57719 174.279 8.57719C175.441 8.57719 176.487 8.75252 177.415 9.1032C178.35 9.44699 179.141 9.92143 179.787 10.5265C180.44 11.1316 180.939 11.8433 181.282 12.6615C181.633 13.4797 181.809 14.3564 181.809 15.2915C181.809 15.4084 181.805 15.5356 181.798 15.6731C181.798 15.8038 181.791 15.9241 181.778 16.0341H170.267C170.398 16.3986 170.608 16.732 170.896 17.0346C171.192 17.3371 171.56 17.5984 172 17.8184C172.44 18.0385 172.949 18.2104 173.526 18.3341C174.104 18.451 174.743 18.5095 175.445 18.5095C176.146 18.5095 176.844 18.4373 177.539 18.2929C178.233 18.1416 178.897 17.9525 179.529 17.7256L180.561 20.0566C180.162 20.2422 179.756 20.4072 179.343 20.5516C178.938 20.6891 178.511 20.806 178.065 20.9023C177.625 20.9917 177.16 21.0604 176.672 21.1086C176.191 21.1567 175.682 21.1808 175.146 21.1808C173.777 21.1808 172.578 21.0157 171.546 20.6857C170.515 20.3557 169.652 19.9053 168.957 19.3346C168.263 18.7639 167.74 18.0935 167.39 17.3234C167.039 16.5533 166.864 15.7247 166.864 14.8377ZM178.57 13.6516C178.46 13.3147 178.288 13.0018 178.054 12.7131C177.827 12.4174 177.542 12.163 177.198 11.9498C176.854 11.7298 176.456 11.5579 176.002 11.4341C175.548 11.3104 175.049 11.2485 174.506 11.2485C173.929 11.2485 173.403 11.3138 172.928 11.4445C172.454 11.5751 172.038 11.7504 171.68 11.9705C171.323 12.1905 171.024 12.4449 170.783 12.7337C170.549 13.0225 170.377 13.3285 170.267 13.6516H178.57ZM183.417 8.78346H186.955L190.122 16.1063L191.05 18.1588L192.184 15.4978L189.173 8.78346H192.143L193.618 12.3933L195.093 8.78346H198.063L195.041 15.4978L196.186 18.1588L197.114 16.1063L200.281 8.78346H203.818L198.053 20.9642H194.732L193.618 18.6126L192.504 20.9642H189.183L183.417 8.78346Z" fill="black"/>
</svg>
