<svg width="227" height="25" viewBox="0 0 227 25" fill="none" xmlns="http://www.w3.org/2000/svg">
<path d="M19.25 16.4642V14.7142L11.8125 10.3392V5.52668C11.8125 4.80043 11.2262 4.21418 10.5 4.21418C9.77375 4.21418 9.1875 4.80043 9.1875 5.52668V10.3392L1.75 14.7142V16.4642L9.1875 14.2767V19.0892L7 20.4017V21.7142L10.5 20.8392L14 21.7142V20.4017L11.8125 19.0892V14.2767L19.25 16.4642Z" fill="black"/>
<path d="M21.5727 8.78346H25.1103L28.2767 16.1063L29.1018 18.1588L29.9269 16.1063L33.0933 8.78346H36.631L30.8655 20.9642H27.3381L21.5727 8.78346ZM40.3749 7.13324C40.0724 7.13324 39.7973 7.09199 39.5498 7.00947C39.3091 6.92009 39.1029 6.8032 38.931 6.6588C38.7591 6.50753 38.625 6.33563 38.5287 6.14311C38.4393 5.9437 38.3946 5.73399 38.3946 5.51396C38.3946 5.28705 38.4393 5.07734 38.5287 4.88481C38.625 4.68541 38.7591 4.51351 38.931 4.36912C39.1029 4.22472 39.3091 4.11127 39.5498 4.02876C39.7973 3.93937 40.0724 3.89468 40.3749 3.89468C40.6843 3.89468 40.9594 3.93937 41.2 4.02876C41.4476 4.11127 41.6573 4.22472 41.8292 4.36912C42.0011 4.51351 42.1317 4.68541 42.2211 4.88481C42.3174 5.07734 42.3655 5.28705 42.3655 5.51396C42.3655 5.73399 42.3174 5.9437 42.2211 6.14311C42.1317 6.33563 42.0011 6.50753 41.8292 6.6588C41.6573 6.8032 41.4476 6.92009 41.2 7.00947C40.9594 7.09199 40.6843 7.13324 40.3749 7.13324ZM38.8485 8.79378H41.9014V20.9642H38.8485V8.79378ZM46.3054 17.2305C47.1305 17.7256 48.0381 18.09 49.0283 18.3238C50.0184 18.5576 51.0326 18.6745 52.0709 18.6745C52.7722 18.6745 53.3567 18.6264 53.8242 18.5301C54.2918 18.4338 54.6665 18.3101 54.9484 18.1588C55.2304 18.0075 55.4298 17.8356 55.5467 17.6431C55.6635 17.4506 55.722 17.2546 55.722 17.0552C55.722 16.7664 55.5948 16.5189 55.3404 16.3126C55.0928 16.1063 54.6803 16.0032 54.1027 16.0032C53.8345 16.0032 53.5458 16.0204 53.2363 16.0548C52.9269 16.0891 52.6003 16.127 52.2565 16.1682C51.9196 16.2026 51.5655 16.237 51.1942 16.2714C50.8298 16.3057 50.4585 16.3229 50.0803 16.3229C49.2552 16.3229 48.5504 16.2335 47.9659 16.0548C47.3884 15.876 46.9174 15.6319 46.5529 15.3225C46.1885 15.0131 45.9238 14.6486 45.7588 14.2292C45.5937 13.8029 45.5112 13.3456 45.5112 12.8575C45.5112 12.2386 45.6556 11.6679 45.9444 11.1453C46.2332 10.6228 46.6458 10.1724 47.1821 9.79423C47.7184 9.40917 48.3647 9.11007 49.1211 8.89692C49.8843 8.68376 50.7335 8.57719 51.6686 8.57719C52.1568 8.57719 52.6656 8.60813 53.1951 8.67001C53.7314 8.72502 54.2574 8.80065 54.7731 8.89692C55.2888 8.99318 55.7839 9.10663 56.2583 9.23728C56.7328 9.36104 57.1522 9.49512 57.5166 9.63952L56.5574 12.0117C55.7804 11.7229 55.0035 11.496 54.2265 11.331C53.4564 11.1591 52.6622 11.0732 51.844 11.0732C51.2733 11.0732 50.7885 11.1178 50.3897 11.2072C49.9978 11.2897 49.678 11.4032 49.4305 11.5476C49.183 11.6851 49.0008 11.8467 48.8839 12.0323C48.7739 12.2111 48.7189 12.4002 48.7189 12.5996C48.7189 12.744 48.7464 12.8746 48.8014 12.9915C48.8632 13.1084 48.9595 13.2116 49.0902 13.301C49.2277 13.3835 49.403 13.4488 49.6162 13.4969C49.8362 13.5382 50.1044 13.5588 50.4206 13.5588C50.7094 13.5588 51.0154 13.5416 51.3386 13.5072C51.6618 13.4729 51.9987 13.4385 52.3493 13.4041C52.7 13.3628 53.061 13.325 53.4323 13.2906C53.8105 13.2563 54.1955 13.2391 54.5875 13.2391C55.3163 13.2391 55.9523 13.325 56.4955 13.4969C57.0456 13.6688 57.4994 13.9095 57.857 14.2189C58.2145 14.5283 58.4827 14.8927 58.6615 15.3122C58.8402 15.7316 58.9296 16.1888 58.9296 16.6839C58.9296 17.3234 58.7818 17.9181 58.4861 18.4682C58.1904 19.0183 57.7504 19.4962 57.1659 19.9018C56.5815 20.3007 55.8526 20.6135 54.9794 20.8404C54.113 21.0673 53.1091 21.1808 51.9677 21.1808C51.2664 21.1808 50.5891 21.1361 49.9359 21.0467C49.2827 20.9642 48.6604 20.8507 48.0691 20.7063C47.4777 20.5551 46.9208 20.3797 46.3982 20.1803C45.8825 19.9809 45.4115 19.7678 44.9852 19.5409L46.3054 17.2305ZM61.1058 17.1274C61.1058 16.543 61.2331 16.0101 61.4875 15.5288C61.7419 15.0474 62.1235 14.6349 62.6323 14.2911C63.1411 13.9404 63.7737 13.6723 64.5301 13.4866C65.2933 13.2941 66.1803 13.1978 67.191 13.1978C67.9405 13.1978 68.7278 13.2528 69.5529 13.3628C70.3849 13.4729 71.241 13.6413 72.1211 13.8682C72.0867 13.4832 71.9698 13.1291 71.7704 12.8059C71.571 12.4758 71.2925 12.1939 70.935 11.9601C70.5843 11.7195 70.158 11.5338 69.6561 11.4032C69.161 11.2726 68.5972 11.2072 67.9646 11.2072C67.6208 11.2072 67.2426 11.2279 66.8301 11.2691C66.4175 11.3104 65.9912 11.3723 65.5511 11.4548C65.1111 11.5373 64.6745 11.6404 64.2413 11.7642C63.815 11.8879 63.4162 12.0358 63.0449 12.2077L62.1166 9.7014C62.5773 9.53638 63.0689 9.38511 63.5915 9.24759C64.1209 9.11007 64.6607 8.99318 65.2108 8.89692C65.7609 8.79378 66.3109 8.71471 66.861 8.6597C67.4111 8.60469 67.944 8.57719 68.4597 8.57719C70.7356 8.57719 72.4271 9.1582 73.5341 10.3202C74.6411 11.4823 75.1946 13.2631 75.1946 15.6628V20.9642H72.1417V19.8193C71.8254 20.005 71.4782 20.1803 71.1 20.3453C70.7287 20.5104 70.323 20.6548 69.883 20.7785C69.4429 20.9023 68.9685 20.9986 68.4597 21.0673C67.9577 21.143 67.4248 21.1808 66.861 21.1808C65.9121 21.1808 65.0767 21.0776 64.3547 20.8714C63.6396 20.6651 63.0414 20.3797 62.5601 20.0153C62.0788 19.6509 61.7144 19.2246 61.4668 18.7364C61.2262 18.2413 61.1058 17.705 61.1058 17.1274ZM64.3238 17.0243C64.3238 17.2237 64.3754 17.4162 64.4785 17.6018C64.5816 17.7806 64.7467 17.9422 64.9736 18.0866C65.2005 18.2241 65.4893 18.3376 65.8399 18.427C66.1975 18.5095 66.6272 18.5507 67.1292 18.5507C67.6655 18.5507 68.1846 18.5026 68.6866 18.4063C69.1885 18.3101 69.6561 18.1829 70.0893 18.0247C70.5224 17.8666 70.9144 17.6844 71.265 17.4781C71.6157 17.2718 71.9079 17.0587 72.1417 16.8386V16.3023C71.6742 16.1717 71.21 16.0616 70.7493 15.9723C70.2955 15.8829 69.8589 15.8141 69.4395 15.766C69.0269 15.711 68.635 15.6731 68.2637 15.6525C67.8993 15.6319 67.5795 15.6216 67.3045 15.6216C66.7338 15.6216 66.2594 15.6594 65.8812 15.735C65.503 15.8107 65.197 15.9138 64.9632 16.0445C64.7295 16.1682 64.5644 16.316 64.4682 16.4879C64.3719 16.6598 64.3238 16.8386 64.3238 17.0243ZM203.376 17.1274C203.376 16.543 203.503 16.0101 203.757 15.5288C204.012 15.0474 204.393 14.6349 204.902 14.2911C205.411 13.9404 206.044 13.6723 206.8 13.4866C207.563 13.2941 208.45 13.1978 209.461 13.1978C210.21 13.1978 210.998 13.2528 211.823 13.3628C212.655 13.4729 213.511 13.6413 214.391 13.8682C214.357 13.4832 214.24 13.1291 214.04 12.8059C213.841 12.4758 213.562 12.1939 213.205 11.9601C212.854 11.7195 212.428 11.5338 211.926 11.4032C211.431 11.2726 210.867 11.2072 210.235 11.2072C209.891 11.2072 209.513 11.2279 209.1 11.2691C208.687 11.3104 208.261 11.3723 207.821 11.4548C207.381 11.5373 206.944 11.6404 206.511 11.7642C206.085 11.8879 205.686 12.0358 205.315 12.2077L204.387 9.7014C204.847 9.53638 205.339 9.38511 205.861 9.24759C206.391 9.11007 206.931 8.99318 207.481 8.89692C208.031 8.79378 208.581 8.71471 209.131 8.6597C209.681 8.60469 210.214 8.57719 210.73 8.57719C213.006 8.57719 214.697 9.1582 215.804 10.3202C216.911 11.4823 217.465 13.2631 217.465 15.6628V20.9642H214.412V19.8193C214.095 20.005 213.748 20.1803 213.37 20.3453C212.999 20.5104 212.593 20.6548 212.153 20.7785C211.713 20.9023 211.238 20.9986 210.73 21.0673C210.228 21.143 209.695 21.1808 209.131 21.1808C208.182 21.1808 207.347 21.0776 206.625 20.8714C205.91 20.6651 205.311 20.3797 204.83 20.0153C204.349 19.6509 203.984 19.2246 203.737 18.7364C203.496 18.2413 203.376 17.705 203.376 17.1274ZM206.594 17.0243C206.594 17.2237 206.645 17.4162 206.748 17.6018C206.852 17.7806 207.017 17.9422 207.243 18.0866C207.47 18.2241 207.759 18.3376 208.11 18.427C208.467 18.5095 208.897 18.5507 209.399 18.5507C209.935 18.5507 210.455 18.5026 210.956 18.4063C211.458 18.3101 211.926 18.1829 212.359 18.0247C212.792 17.8666 213.184 17.6844 213.535 17.4781C213.886 17.2718 214.178 17.0587 214.412 16.8386V16.3023C213.944 16.1717 213.48 16.0616 213.019 15.9723C212.565 15.8829 212.129 15.8141 211.709 15.766C211.297 15.711 210.905 15.6731 210.534 15.6525C210.169 15.6319 209.849 15.6216 209.574 15.6216C209.004 15.6216 208.529 15.6594 208.151 15.735C207.773 15.8107 207.467 15.9138 207.233 16.0445C206.999 16.1682 206.834 16.316 206.738 16.4879C206.642 16.6598 206.594 16.8386 206.594 17.0243ZM223.117 7.13324C222.814 7.13324 222.539 7.09199 222.291 7.00947C222.051 6.92009 221.845 6.8032 221.673 6.6588C221.501 6.50753 221.367 6.33563 221.27 6.14311C221.181 5.9437 221.136 5.73399 221.136 5.51396C221.136 5.28705 221.181 5.07734 221.27 4.88481C221.367 4.68541 221.501 4.51351 221.673 4.36912C221.845 4.22472 222.051 4.11127 222.291 4.02876C222.539 3.93937 222.814 3.89468 223.117 3.89468C223.426 3.89468 223.701 3.93937 223.942 4.02876C224.189 4.11127 224.399 4.22472 224.571 4.36912C224.743 4.51351 224.873 4.68541 224.963 4.88481C225.059 5.07734 225.107 5.28705 225.107 5.51396C225.107 5.73399 225.059 5.9437 224.963 6.14311C224.873 6.33563 224.743 6.50753 224.571 6.6588C224.399 6.8032 224.189 6.92009 223.942 7.00947C223.701 7.09199 223.426 7.13324 223.117 7.13324ZM221.59 8.79378H224.643V20.9642H221.59V8.79378Z" fill="#2D81F7"/>
<path d="M80.8466 7.13324C80.5441 7.13324 80.2691 7.09199 80.0215 7.00947C79.7809 6.92009 79.5746 6.8032 79.4027 6.6588C79.2308 6.50753 79.0967 6.33563 79.0005 6.14311C78.9111 5.9437 78.8664 5.73399 78.8664 5.51396C78.8664 5.28705 78.9111 5.07734 79.0005 4.88481C79.0967 4.68541 79.2308 4.51351 79.4027 4.36912C79.5746 4.22472 79.7809 4.11127 80.0215 4.02876C80.2691 3.93937 80.5441 3.89468 80.8466 3.89468C81.1561 3.89468 81.4311 3.93937 81.6718 4.02876C81.9193 4.11127 82.129 4.22472 82.3009 4.36912C82.4728 4.51351 82.6034 4.68541 82.6928 4.88481C82.7891 5.07734 82.8372 5.28705 82.8372 5.51396C82.8372 5.73399 82.7891 5.9437 82.6928 6.14311C82.6034 6.33563 82.4728 6.50753 82.3009 6.6588C82.129 6.8032 81.9193 6.92009 81.6718 7.00947C81.4311 7.09199 81.1561 7.13324 80.8466 7.13324ZM79.3202 8.79378H82.3731V20.9642H79.3202V8.79378ZM86.2924 8.79378H89.3453V9.82517C90.1567 9.36448 90.9302 9.04131 91.6659 8.85566C92.4085 8.67001 93.1339 8.57719 93.8422 8.57719C94.7704 8.57719 95.6299 8.71471 96.4206 8.98974C97.2114 9.2579 97.8955 9.66015 98.4731 10.1965C99.0507 10.7328 99.5011 11.4032 99.8242 12.2077C100.154 13.0053 100.319 13.9301 100.319 14.9821V20.9642H97.2767V15.4772C97.2767 14.8102 97.1804 14.2155 96.9879 13.6929C96.8023 13.1634 96.5307 12.7199 96.1731 12.3624C95.8224 11.998 95.3927 11.7229 94.8839 11.5373C94.3819 11.3447 93.8181 11.2485 93.1924 11.2485C92.8623 11.2485 92.522 11.2829 92.1713 11.3516C91.8275 11.4204 91.4872 11.5201 91.1502 11.6507C90.8202 11.7745 90.5005 11.9326 90.191 12.1252C89.8816 12.3108 89.5997 12.524 89.3453 12.7646V20.9642H86.2924V8.79378ZM105.909 11.0835H102.97V8.79378H105.909V5.00858H108.962V8.79378H111.902V11.0835H108.962V20.9642H105.909V11.0835ZM114.037 14.8377C114.037 14.0126 114.205 13.2253 114.542 12.4758C114.879 11.7195 115.364 11.0525 115.996 10.4749C116.629 9.89737 117.403 9.43668 118.317 9.09288C119.238 8.74909 120.284 8.57719 121.452 8.57719C122.615 8.57719 123.66 8.75252 124.588 9.1032C125.523 9.44699 126.314 9.92143 126.96 10.5265C127.613 11.1316 128.112 11.8433 128.456 12.6615C128.806 13.4797 128.982 14.3564 128.982 15.2915C128.982 15.4084 128.978 15.5356 128.971 15.6731C128.971 15.8038 128.964 15.9241 128.951 16.0341H117.44C117.571 16.3986 117.781 16.732 118.07 17.0346C118.365 17.3371 118.733 17.5984 119.173 17.8184C119.613 18.0385 120.122 18.2104 120.7 18.3341C121.277 18.451 121.917 18.5095 122.618 18.5095C123.319 18.5095 124.017 18.4373 124.712 18.2929C125.406 18.1416 126.07 17.9525 126.702 17.7256L127.734 20.0566C127.335 20.2422 126.929 20.4072 126.517 20.5516C126.111 20.6891 125.685 20.806 125.238 20.9023C124.798 20.9917 124.333 21.0604 123.845 21.1086C123.364 21.1567 122.855 21.1808 122.319 21.1808C120.951 21.1808 119.751 21.0157 118.719 20.6857C117.688 20.3557 116.825 19.9053 116.13 19.3346C115.436 18.7639 114.913 18.0935 114.563 17.3234C114.212 16.5533 114.037 15.7247 114.037 14.8377ZM125.743 13.6516C125.633 13.3147 125.461 13.0018 125.227 12.7131C125 12.4174 124.715 12.163 124.371 11.9498C124.028 11.7298 123.629 11.5579 123.175 11.4341C122.721 11.3104 122.223 11.2485 121.679 11.2485C121.102 11.2485 120.576 11.3138 120.101 11.4445C119.627 11.5751 119.211 11.7504 118.853 11.9705C118.496 12.1905 118.197 12.4449 117.956 12.7337C117.722 13.0225 117.55 13.3285 117.44 13.6516H125.743ZM132.272 8.79378H135.325V10.5471C135.999 10.0452 136.71 9.61201 137.46 9.24759C138.209 8.88317 138.955 8.60469 139.698 8.41216L140.595 11.2072C139.419 11.3241 138.384 11.5888 137.491 12.0014C136.604 12.4071 135.882 12.9812 135.325 13.7238V20.9642H132.272V8.79378ZM141.193 8.78346H144.731L147.897 16.1063L148.722 18.1588L149.548 16.1063L152.714 8.78346H156.252L150.486 20.9642H146.959L141.193 8.78346ZM159.996 7.13324C159.693 7.13324 159.418 7.09199 159.17 7.00947C158.93 6.92009 158.723 6.8032 158.552 6.6588C158.38 6.50753 158.246 6.33563 158.149 6.14311C158.06 5.9437 158.015 5.73399 158.015 5.51396C158.015 5.28705 158.06 5.07734 158.149 4.88481C158.246 4.68541 158.38 4.51351 158.552 4.36912C158.723 4.22472 158.93 4.11127 159.17 4.02876C159.418 3.93937 159.693 3.89468 159.996 3.89468C160.305 3.89468 160.58 3.93937 160.821 4.02876C161.068 4.11127 161.278 4.22472 161.45 4.36912C161.622 4.51351 161.752 4.68541 161.842 4.88481C161.938 5.07734 161.986 5.28705 161.986 5.51396C161.986 5.73399 161.938 5.9437 161.842 6.14311C161.752 6.33563 161.622 6.50753 161.45 6.6588C161.278 6.8032 161.068 6.92009 160.821 7.00947C160.58 7.09199 160.305 7.13324 159.996 7.13324ZM158.469 8.79378H161.522V20.9642H158.469V8.79378ZM164.864 14.8377C164.864 14.0126 165.032 13.2253 165.369 12.4758C165.706 11.7195 166.191 11.0525 166.823 10.4749C167.456 9.89737 168.229 9.43668 169.144 9.09288C170.065 8.74909 171.11 8.57719 172.279 8.57719C173.441 8.57719 174.487 8.75252 175.415 9.1032C176.35 9.44699 177.141 9.92143 177.787 10.5265C178.44 11.1316 178.939 11.8433 179.282 12.6615C179.633 13.4797 179.809 14.3564 179.809 15.2915C179.809 15.4084 179.805 15.5356 179.798 15.6731C179.798 15.8038 179.791 15.9241 179.778 16.0341H168.267C168.398 16.3986 168.608 16.732 168.896 17.0346C169.192 17.3371 169.56 17.5984 170 17.8184C170.44 18.0385 170.949 18.2104 171.526 18.3341C172.104 18.451 172.743 18.5095 173.445 18.5095C174.146 18.5095 174.844 18.4373 175.539 18.2929C176.233 18.1416 176.897 17.9525 177.529 17.7256L178.561 20.0566C178.162 20.2422 177.756 20.4072 177.343 20.5516C176.938 20.6891 176.511 20.806 176.065 20.9023C175.625 20.9917 175.16 21.0604 174.672 21.1086C174.191 21.1567 173.682 21.1808 173.146 21.1808C171.777 21.1808 170.578 21.0157 169.546 20.6857C168.515 20.3557 167.652 19.9053 166.957 19.3346C166.263 18.7639 165.74 18.0935 165.39 17.3234C165.039 16.5533 164.864 15.7247 164.864 14.8377ZM176.57 13.6516C176.46 13.3147 176.288 13.0018 176.054 12.7131C175.827 12.4174 175.542 12.163 175.198 11.9498C174.854 11.7298 174.456 11.5579 174.002 11.4341C173.548 11.3104 173.049 11.2485 172.506 11.2485C171.929 11.2485 171.403 11.3138 170.928 11.4445C170.454 11.5751 170.038 11.7504 169.68 11.9705C169.323 12.1905 169.024 12.4449 168.783 12.7337C168.549 13.0225 168.377 13.3285 168.267 13.6516H176.57ZM181.417 8.78346H184.955L188.122 16.1063L189.05 18.1588L190.184 15.4978L187.173 8.78346H190.143L191.618 12.3933L193.093 8.78346H196.063L193.041 15.4978L194.186 18.1588L195.114 16.1063L198.281 8.78346H201.818L196.053 20.9642H192.732L191.618 18.6126L190.504 20.9642H187.183L181.417 8.78346Z" fill="black"/>
</svg>
