<svg width="238" height="32" viewBox="0 0 238 32" fill="none" xmlns="http://www.w3.org/2000/svg">
<path d="M25.8408 19.267C25.8032 19.0788 25.6838 18.9169 25.5148 18.8255C25.346 18.734 25.1452 18.7224 24.967 18.7937L21.7353 20.0864C21.4038 20.2189 21.2426 20.5951 21.3753 20.9265C21.5078 21.2579 21.8839 21.4191 22.2154 21.2865L23.7979 20.6535C23.5365 21.3467 22.8293 22.0572 21.6213 22.6613C20.0911 23.4263 17.9321 23.9181 15.512 23.9181C13.0918 23.9181 10.9327 23.4263 9.40259 22.6613C7.8338 21.8769 7.10957 20.9128 7.10957 20.0401C7.10957 19.6832 6.82019 19.3938 6.46323 19.3938C6.10627 19.3938 5.81689 19.6832 5.81689 20.0401C5.81689 21.6662 7.11828 22.9643 8.8245 23.8174C10.5694 24.6899 12.9346 25.2108 15.512 25.2108C18.0893 25.2108 20.4545 24.6899 22.1995 23.8174C23.4362 23.199 24.4602 22.3468 24.9301 21.3053L25.2196 22.7523C25.2896 23.1022 25.6301 23.3292 25.9802 23.2593C26.3301 23.1892 26.5571 22.8487 26.4872 22.4987L25.8408 19.267Z" fill="black" stroke="black" stroke-width="0.66009"/>
<path fill-rule="evenodd" clip-rule="evenodd" d="M15.7184 7.89722C13.2197 7.89722 11.194 9.92284 11.194 12.4216C11.194 14.9203 13.2197 16.9459 15.7184 16.9459C18.2171 16.9459 20.2428 14.9203 20.2428 12.4216C20.2428 9.92284 18.2171 7.89722 15.7184 7.89722ZM9.90137 12.4216C9.90137 9.20892 12.5057 6.60454 15.7184 6.60454C18.9311 6.60454 21.5354 9.20892 21.5354 12.4216C21.5354 15.6343 18.9311 18.2386 15.7184 18.2386C12.5057 18.2386 9.90137 15.6343 9.90137 12.4216Z" fill="black" stroke="black" stroke-width="0.66009"/>
<path d="M31.5971 11.7835H35.1348L38.3011 19.1063L39.1262 21.1588L39.9513 19.1063L43.1177 11.7835H46.6554L40.8899 23.9642H37.3626L31.5971 11.7835ZM50.3993 10.1332C50.0968 10.1332 49.8217 10.092 49.5742 10.0095C49.3336 9.92009 49.1273 9.8032 48.9554 9.6588C48.7835 9.50753 48.6494 9.33563 48.5531 9.14311C48.4637 8.9437 48.4191 8.73399 48.4191 8.51396C48.4191 8.28705 48.4637 8.07734 48.5531 7.88481C48.6494 7.68541 48.7835 7.51351 48.9554 7.36912C49.1273 7.22472 49.3336 7.11127 49.5742 7.02876C49.8217 6.93937 50.0968 6.89468 50.3993 6.89468C50.7087 6.89468 50.9838 6.93937 51.2244 7.02876C51.472 7.11127 51.6817 7.22472 51.8536 7.36912C52.0255 7.51351 52.1561 7.68541 52.2455 7.88481C52.3418 8.07734 52.3899 8.28705 52.3899 8.51396C52.3899 8.73399 52.3418 8.9437 52.2455 9.14311C52.1561 9.33563 52.0255 9.50753 51.8536 9.6588C51.6817 9.8032 51.472 9.92009 51.2244 10.0095C50.9838 10.092 50.7087 10.1332 50.3993 10.1332ZM48.8729 11.7938H51.9258V23.9642H48.8729V11.7938ZM56.3298 20.2305C57.1549 20.7256 58.0625 21.09 59.0527 21.3238C60.0428 21.5576 61.057 21.6745 62.0953 21.6745C62.7966 21.6745 63.3811 21.6264 63.8486 21.5301C64.3162 21.4338 64.6909 21.3101 64.9729 21.1588C65.2548 21.0075 65.4542 20.8356 65.5711 20.6431C65.688 20.4506 65.7464 20.2546 65.7464 20.0552C65.7464 19.7664 65.6192 19.5189 65.3648 19.3126C65.1173 19.1063 64.7047 19.0032 64.1271 19.0032C63.859 19.0032 63.5702 19.0204 63.2608 19.0548C62.9513 19.0891 62.6247 19.127 62.2809 19.1682C61.944 19.2026 61.5899 19.237 61.2186 19.2714C60.8542 19.3057 60.4829 19.3229 60.1047 19.3229C59.2796 19.3229 58.5748 19.2335 57.9904 19.0548C57.4128 18.876 56.9418 18.6319 56.5773 18.3225C56.2129 18.0131 55.9482 17.6486 55.7832 17.2292C55.6182 16.8029 55.5356 16.3456 55.5356 15.8575C55.5356 15.2386 55.68 14.6679 55.9688 14.1453C56.2576 13.6228 56.6702 13.1724 57.2065 12.7942C57.7428 12.4092 58.3892 12.1101 59.1455 11.8969C59.9087 11.6838 60.7579 11.5772 61.693 11.5772C62.1812 11.5772 62.6901 11.6081 63.2195 11.67C63.7558 11.725 64.2818 11.8007 64.7975 11.8969C65.3132 11.9932 65.8083 12.1066 66.2827 12.2373C66.7572 12.361 67.1766 12.4951 67.541 12.6395L66.5818 15.0117C65.8048 14.7229 65.0279 14.496 64.2509 14.331C63.4808 14.1591 62.6866 14.0732 61.8684 14.0732C61.2977 14.0732 60.8129 14.1178 60.4141 14.2072C60.0222 14.2897 59.7025 14.4032 59.4549 14.5476C59.2074 14.6851 59.0252 14.8467 58.9083 15.0323C58.7983 15.2111 58.7433 15.4002 58.7433 15.5996C58.7433 15.744 58.7708 15.8746 58.8258 15.9915C58.8877 16.1084 58.9839 16.2116 59.1146 16.301C59.2521 16.3835 59.4274 16.4488 59.6406 16.4969C59.8606 16.5382 60.1288 16.5588 60.4451 16.5588C60.7338 16.5588 61.0398 16.5416 61.363 16.5072C61.6862 16.4729 62.0231 16.4385 62.3738 16.4041C62.7244 16.3628 63.0854 16.325 63.4567 16.2906C63.8349 16.2563 64.2199 16.2391 64.6119 16.2391C65.3407 16.2391 65.9767 16.325 66.5199 16.4969C67.07 16.6688 67.5238 16.9095 67.8814 17.2189C68.2389 17.5283 68.5071 17.8927 68.6859 18.3122C68.8646 18.7316 68.954 19.1888 68.954 19.6839C68.954 20.3234 68.8062 20.9181 68.5105 21.4682C68.2149 22.0183 67.7748 22.4962 67.1903 22.9018C66.6059 23.3007 65.877 23.6135 65.0038 23.8404C64.1374 24.0673 63.1335 24.1808 61.9921 24.1808C61.2908 24.1808 60.6135 24.1361 59.9603 24.0467C59.3071 23.9642 58.6848 23.8507 58.0935 23.7063C57.5022 23.5551 56.9452 23.3797 56.4226 23.1803C55.9069 22.9809 55.4359 22.7678 55.0096 22.5409L56.3298 20.2305ZM71.1303 20.1274C71.1303 19.543 71.2575 19.0101 71.5119 18.5288C71.7663 18.0474 72.1479 17.6349 72.6567 17.2911C73.1655 16.9404 73.7981 16.6723 74.5545 16.4866C75.3177 16.2941 76.2047 16.1978 77.2155 16.1978C77.9649 16.1978 78.7522 16.2528 79.5773 16.3628C80.4093 16.4729 81.2654 16.6413 82.1455 16.8682C82.1111 16.4832 81.9942 16.1291 81.7948 15.8059C81.5954 15.4758 81.317 15.1939 80.9594 14.9601C80.6087 14.7195 80.1824 14.5338 79.6805 14.4032C79.1854 14.2726 78.6216 14.2072 77.989 14.2072C77.6452 14.2072 77.267 14.2279 76.8545 14.2691C76.4419 14.3104 76.0156 14.3723 75.5756 14.4548C75.1355 14.5373 74.6989 14.6404 74.2657 14.7642C73.8394 14.8879 73.4406 15.0358 73.0693 15.2077L72.141 12.7014C72.6017 12.5364 73.0933 12.3851 73.6159 12.2476C74.1454 12.1101 74.6851 11.9932 75.2352 11.8969C75.7853 11.7938 76.3353 11.7147 76.8854 11.6597C77.4355 11.6047 77.9684 11.5772 78.4841 11.5772C80.76 11.5772 82.4515 12.1582 83.5585 13.3202C84.6655 14.4823 85.219 16.2631 85.219 18.6628V23.9642H82.1661V22.8193C81.8498 23.005 81.5026 23.1803 81.1244 23.3453C80.7531 23.5104 80.3474 23.6548 79.9074 23.7785C79.4673 23.9023 78.9929 23.9986 78.4841 24.0673C77.9821 24.143 77.4492 24.1808 76.8854 24.1808C75.9365 24.1808 75.1011 24.0776 74.3791 23.8714C73.664 23.6651 73.0658 23.3797 72.5845 23.0153C72.1032 22.6509 71.7388 22.2246 71.4912 21.7364C71.2506 21.2413 71.1303 20.705 71.1303 20.1274ZM74.3482 20.0243C74.3482 20.2237 74.3998 20.4162 74.5029 20.6018C74.606 20.7806 74.7711 20.9422 74.998 21.0866C75.2249 21.2241 75.5137 21.3376 75.8643 21.427C76.2219 21.5095 76.6516 21.5507 77.1536 21.5507C77.6899 21.5507 78.209 21.5026 78.711 21.4063C79.2129 21.3101 79.6805 21.1829 80.1137 21.0247C80.5468 20.8666 80.9388 20.6844 81.2895 20.4781C81.6401 20.2718 81.9324 20.0587 82.1661 19.8386V19.3023C81.6986 19.1717 81.2344 19.0616 80.7738 18.9723C80.3199 18.8829 79.8833 18.8141 79.4639 18.766C79.0513 18.711 78.6594 18.6731 78.2881 18.6525C77.9237 18.6319 77.604 18.6216 77.3289 18.6216C76.7582 18.6216 76.2838 18.6594 75.9056 18.735C75.5274 18.8107 75.2214 18.9138 74.9877 19.0445C74.7539 19.1682 74.5889 19.316 74.4926 19.4879C74.3963 19.6598 74.3482 19.8386 74.3482 20.0243ZM213.4 20.1274C213.4 19.543 213.527 19.0101 213.782 18.5288C214.036 18.0474 214.418 17.6349 214.927 17.2911C215.435 16.9404 216.068 16.6723 216.824 16.4866C217.588 16.2941 218.475 16.1978 219.485 16.1978C220.235 16.1978 221.022 16.2528 221.847 16.3628C222.679 16.4729 223.535 16.6413 224.415 16.8682C224.381 16.4832 224.264 16.1291 224.065 15.8059C223.865 15.4758 223.587 15.1939 223.229 14.9601C222.879 14.7195 222.452 14.5338 221.95 14.4032C221.455 14.2726 220.892 14.2072 220.259 14.2072C219.915 14.2072 219.537 14.2279 219.124 14.2691C218.712 14.3104 218.286 14.3723 217.845 14.4548C217.405 14.5373 216.969 14.6404 216.536 14.7642C216.109 14.8879 215.71 15.0358 215.339 15.2077L214.411 12.7014C214.872 12.5364 215.363 12.3851 215.886 12.2476C216.415 12.1101 216.955 11.9932 217.505 11.8969C218.055 11.7938 218.605 11.7147 219.155 11.6597C219.705 11.6047 220.238 11.5772 220.754 11.5772C223.03 11.5772 224.721 12.1582 225.828 13.3202C226.935 14.4823 227.489 16.2631 227.489 18.6628V23.9642H224.436V22.8193C224.12 23.005 223.773 23.1803 223.394 23.3453C223.023 23.5104 222.617 23.6548 222.177 23.7785C221.737 23.9023 221.263 23.9986 220.754 24.0673C220.252 24.143 219.719 24.1808 219.155 24.1808C218.206 24.1808 217.371 24.0776 216.649 23.8714C215.934 23.6651 215.336 23.3797 214.854 23.0153C214.373 22.6509 214.009 22.2246 213.761 21.7364C213.521 21.2413 213.4 20.705 213.4 20.1274ZM216.618 20.0243C216.618 20.2237 216.67 20.4162 216.773 20.6018C216.876 20.7806 217.041 20.9422 217.268 21.0866C217.495 21.2241 217.784 21.3376 218.134 21.427C218.492 21.5095 218.922 21.5507 219.423 21.5507C219.96 21.5507 220.479 21.5026 220.981 21.4063C221.483 21.3101 221.95 21.1829 222.384 21.0247C222.817 20.8666 223.209 20.6844 223.559 20.4781C223.91 20.2718 224.202 20.0587 224.436 19.8386V19.3023C223.968 19.1717 223.504 19.0616 223.044 18.9723C222.59 18.8829 222.153 18.8141 221.734 18.766C221.321 18.711 220.929 18.6731 220.558 18.6525C220.194 18.6319 219.874 18.6216 219.599 18.6216C219.028 18.6216 218.554 18.6594 218.176 18.735C217.797 18.8107 217.491 18.9138 217.258 19.0445C217.024 19.1682 216.859 19.316 216.763 19.4879C216.666 19.6598 216.618 19.8386 216.618 20.0243ZM233.141 10.1332C232.838 10.1332 232.563 10.092 232.316 10.0095C232.075 9.92009 231.869 9.8032 231.697 9.6588C231.525 9.50753 231.391 9.33563 231.295 9.14311C231.205 8.9437 231.161 8.73399 231.161 8.51396C231.161 8.28705 231.205 8.07734 231.295 7.88481C231.391 7.68541 231.525 7.51351 231.697 7.36912C231.869 7.22472 232.075 7.11127 232.316 7.02876C232.563 6.93937 232.838 6.89468 233.141 6.89468C233.45 6.89468 233.725 6.93937 233.966 7.02876C234.214 7.11127 234.423 7.22472 234.595 7.36912C234.767 7.51351 234.898 7.68541 234.987 7.88481C235.083 8.07734 235.132 8.28705 235.132 8.51396C235.132 8.73399 235.083 8.9437 234.987 9.14311C234.898 9.33563 234.767 9.50753 234.595 9.6588C234.423 9.8032 234.214 9.92009 233.966 10.0095C233.725 10.092 233.45 10.1332 233.141 10.1332ZM231.615 11.7938H234.667V23.9642H231.615V11.7938Z" fill="#2D81F7"/>
<path d="M90.8711 10.1332C90.5685 10.1332 90.2935 10.092 90.046 10.0095C89.8053 9.92009 89.599 9.8032 89.4271 9.6588C89.2552 9.50753 89.1211 9.33563 89.0249 9.14311C88.9355 8.9437 88.8908 8.73399 88.8908 8.51396C88.8908 8.28705 88.9355 8.07734 89.0249 7.88481C89.1211 7.68541 89.2552 7.51351 89.4271 7.36912C89.599 7.22472 89.8053 7.11127 90.046 7.02876C90.2935 6.93937 90.5685 6.89468 90.8711 6.89468C91.1805 6.89468 91.4555 6.93937 91.6962 7.02876C91.9437 7.11127 92.1534 7.22472 92.3253 7.36912C92.4972 7.51351 92.6279 7.68541 92.7173 7.88481C92.8135 8.07734 92.8616 8.28705 92.8616 8.51396C92.8616 8.73399 92.8135 8.9437 92.7173 9.14311C92.6279 9.33563 92.4972 9.50753 92.3253 9.6588C92.1534 9.8032 91.9437 9.92009 91.6962 10.0095C91.4555 10.092 91.1805 10.1332 90.8711 10.1332ZM89.3446 11.7938H92.3975V23.9642H89.3446V11.7938ZM96.3168 11.7938H99.3697V12.8252C100.181 12.3645 100.955 12.0413 101.69 11.8557C102.433 11.67 103.158 11.5772 103.867 11.5772C104.795 11.5772 105.654 11.7147 106.445 11.9897C107.236 12.2579 107.92 12.6601 108.498 13.1965C109.075 13.7328 109.525 14.4032 109.849 15.2077C110.179 16.0053 110.344 16.9301 110.344 17.9821V23.9642H107.301V18.4772C107.301 17.8102 107.205 17.2155 107.012 16.6929C106.827 16.1634 106.555 15.7199 106.198 15.3624C105.847 14.998 105.417 14.7229 104.908 14.5373C104.406 14.3447 103.843 14.2485 103.217 14.2485C102.887 14.2485 102.546 14.2829 102.196 14.3516C101.852 14.4204 101.512 14.5201 101.175 14.6507C100.845 14.7745 100.525 14.9326 100.215 15.1252C99.906 15.3108 99.6241 15.524 99.3697 15.7646V23.9642H96.3168V11.7938ZM115.934 14.0835H112.994V11.7938H115.934V8.00858H118.987V11.7938H121.926V14.0835H118.987V23.9642H115.934V14.0835ZM124.061 17.8377C124.061 17.0126 124.23 16.2253 124.567 15.4758C124.903 14.7195 125.388 14.0525 126.021 13.4749C126.653 12.8974 127.427 12.4367 128.341 12.0929C129.263 11.7491 130.308 11.5772 131.477 11.5772C132.639 11.5772 133.684 11.7525 134.612 12.1032C135.547 12.447 136.338 12.9214 136.985 13.5265C137.638 14.1316 138.136 14.8433 138.48 15.6615C138.831 16.4797 139.006 17.3564 139.006 18.2915C139.006 18.4084 139.003 18.5356 138.996 18.6731C138.996 18.8038 138.989 18.9241 138.975 19.0341H127.465C127.595 19.3986 127.805 19.732 128.094 20.0346C128.39 20.3371 128.757 20.5984 129.198 20.8184C129.638 21.0385 130.146 21.2104 130.724 21.3341C131.302 21.451 131.941 21.5095 132.642 21.5095C133.344 21.5095 134.042 21.4373 134.736 21.2929C135.431 21.1416 136.094 20.9525 136.727 20.7256L137.758 23.0566C137.359 23.2422 136.954 23.4072 136.541 23.5516C136.135 23.6891 135.709 23.806 135.262 23.9023C134.822 23.9917 134.358 24.0604 133.87 24.1086C133.388 24.1567 132.88 24.1808 132.343 24.1808C130.975 24.1808 129.775 24.0157 128.744 23.6857C127.712 23.3557 126.849 22.9053 126.155 22.3346C125.46 21.7639 124.938 21.0935 124.587 20.3234C124.237 19.5533 124.061 18.7247 124.061 17.8377ZM135.767 16.6516C135.657 16.3147 135.486 16.0018 135.252 15.7131C135.025 15.4174 134.74 15.163 134.396 14.9498C134.052 14.7298 133.653 14.5579 133.199 14.4341C132.745 14.3104 132.247 14.2485 131.704 14.2485C131.126 14.2485 130.6 14.3138 130.126 14.4445C129.651 14.5751 129.235 14.7504 128.878 14.9705C128.52 15.1905 128.221 15.4449 127.98 15.7337C127.747 16.0225 127.575 16.3285 127.465 16.6516H135.767ZM142.296 11.7938H145.349V13.5471C146.023 13.0452 146.735 12.612 147.484 12.2476C148.234 11.8832 148.98 11.6047 149.722 11.4122L150.619 14.2072C149.444 14.3241 148.409 14.5888 147.515 15.0014C146.628 15.4071 145.906 15.9812 145.349 16.7238V23.9642H142.296V11.7938ZM151.218 11.7835H154.755L157.922 19.1063L158.747 21.1588L159.572 19.1063L162.738 11.7835H166.276L160.511 23.9642H156.983L151.218 11.7835ZM170.02 10.1332C169.717 10.1332 169.442 10.092 169.195 10.0095C168.954 9.92009 168.748 9.8032 168.576 9.6588C168.404 9.50753 168.27 9.33563 168.174 9.14311C168.084 8.9437 168.04 8.73399 168.04 8.51396C168.04 8.28705 168.084 8.07734 168.174 7.88481C168.27 7.68541 168.404 7.51351 168.576 7.36912C168.748 7.22472 168.954 7.11127 169.195 7.02876C169.442 6.93937 169.717 6.89468 170.02 6.89468C170.329 6.89468 170.604 6.93937 170.845 7.02876C171.093 7.11127 171.302 7.22472 171.474 7.36912C171.646 7.51351 171.777 7.68541 171.866 7.88481C171.962 8.07734 172.011 8.28705 172.011 8.51396C172.011 8.73399 171.962 8.9437 171.866 9.14311C171.777 9.33563 171.646 9.50753 171.474 9.6588C171.302 9.8032 171.093 9.92009 170.845 10.0095C170.604 10.092 170.329 10.1332 170.02 10.1332ZM168.493 11.7938H171.546V23.9642H168.493V11.7938ZM174.888 17.8377C174.888 17.0126 175.057 16.2253 175.393 15.4758C175.73 14.7195 176.215 14.0525 176.848 13.4749C177.48 12.8974 178.254 12.4367 179.168 12.0929C180.09 11.7491 181.135 11.5772 182.304 11.5772C183.466 11.5772 184.511 11.7525 185.439 12.1032C186.374 12.447 187.165 12.9214 187.811 13.5265C188.465 14.1316 188.963 14.8433 189.307 15.6615C189.658 16.4797 189.833 17.3564 189.833 18.2915C189.833 18.4084 189.829 18.5356 189.823 18.6731C189.823 18.8038 189.816 18.9241 189.802 19.0341H178.292C178.422 19.3986 178.632 19.732 178.921 20.0346C179.216 20.3371 179.584 20.5984 180.024 20.8184C180.464 21.0385 180.973 21.2104 181.551 21.3341C182.128 21.451 182.768 21.5095 183.469 21.5095C184.171 21.5095 184.868 21.4373 185.563 21.2929C186.257 21.1416 186.921 20.9525 187.554 20.7256L188.585 23.0566C188.186 23.2422 187.78 23.4072 187.368 23.5516C186.962 23.6891 186.536 23.806 186.089 23.9023C185.649 23.9917 185.185 24.0604 184.697 24.1086C184.215 24.1567 183.706 24.1808 183.17 24.1808C181.802 24.1808 180.602 24.0157 179.571 23.6857C178.539 23.3557 177.676 22.9053 176.982 22.3346C176.287 21.7639 175.765 21.0935 175.414 20.3234C175.063 19.5533 174.888 18.7247 174.888 17.8377ZM186.594 16.6516C186.484 16.3147 186.312 16.0018 186.079 15.7131C185.852 15.4174 185.566 15.163 185.223 14.9498C184.879 14.7298 184.48 14.5579 184.026 14.4341C183.572 14.3104 183.074 14.2485 182.531 14.2485C181.953 14.2485 181.427 14.3138 180.953 14.4445C180.478 14.5751 180.062 14.7504 179.705 14.9705C179.347 15.1905 179.048 15.4449 178.807 15.7337C178.574 16.0225 178.402 16.3285 178.292 16.6516H186.594ZM191.442 11.7835H194.98L198.146 19.1063L199.074 21.1588L200.209 18.4978L197.197 11.7835H200.167L201.642 15.3933L203.117 11.7835H206.088L203.066 18.4978L204.211 21.1588L205.139 19.1063L208.305 11.7835H211.843L206.077 23.9642H202.756L201.642 21.6126L200.528 23.9642H197.207L191.442 11.7835Z" fill="black"/>
</svg>
