<svg width="37" height="36" viewBox="0 0 37 36" fill="none" xmlns="http://www.w3.org/2000/svg">
<path d="M5.00018 13.5V22.5H11.0002L18.5002 30V6L11.0002 13.5H5.00018ZM15.5002 13.245V22.755L12.2452 19.5H8.00018V16.5H12.2452L15.5002 13.245ZM25.2502 18C25.2502 15.345 23.7202 13.065 21.5002 11.955V24.03C23.7202 22.935 25.2502 20.655 25.2502 18ZM21.5002 4.845V7.935C25.8352 9.225 29.0002 13.245 29.0002 18C29.0002 22.755 25.8352 26.775 21.5002 28.065V31.155C27.5152 29.79 32.0002 24.42 32.0002 18C32.0002 11.58 27.5152 6.21 21.5002 4.845Z" fill="black"/>
</svg>
