<svg width="37" height="36" viewBox="0 0 37 36" fill="none" xmlns="http://www.w3.org/2000/svg">
<path d="M7.01017 4.4025L4.89517 6.5175L11.4352 13.0575L11.0002 13.5075H5.00017V22.5075H11.0002L18.5002 30.0075V20.1225L24.7702 26.3925C23.7952 27.1275 22.7002 27.7125 21.5002 28.0575V31.1475C23.5102 30.6975 25.3552 29.7675 26.9152 28.5225L29.9902 31.5975L32.1052 29.4825L7.01017 4.4025ZM15.5002 22.7625L12.2452 19.5075H8.00017V16.5075H12.2452L13.5652 15.1875L15.5002 17.1225V22.7625ZM29.0002 18.0075C29.0002 19.2375 28.7752 20.4225 28.3852 21.5175L30.6802 23.8125C31.5202 22.0575 32.0002 20.0925 32.0002 18.0075C32.0002 11.5875 27.5152 6.2175 21.5002 4.8525V7.9425C25.8352 9.2325 29.0002 13.2525 29.0002 18.0075ZM18.5002 6.0075L15.6802 8.8275L18.5002 11.6475V6.0075ZM25.2502 18.0075C25.2502 15.3525 23.7202 13.0725 21.5002 11.9625V14.6475L25.2202 18.3675C25.2352 18.2475 25.2502 18.1275 25.2502 18.0075Z" fill="black"/>
</svg>
