<svg width="36" height="36" viewBox="0 0 36 36" fill="none" xmlns="http://www.w3.org/2000/svg">
<path d="M14.985 12.8545L11.985 9.85453L5.76 3.64453L3.645 5.75953L7.74 9.85453H6.645C5.82 9.85453 5.145 10.5295 5.145 11.3545V26.3545C5.145 27.1795 5.82 27.8545 6.645 27.8545H24.645C24.96 27.8545 25.23 27.7345 25.47 27.5845L30.24 32.3545L32.355 30.2395L19.065 16.9495L14.985 12.8545ZM8.145 24.8545V12.8545H10.74L22.74 24.8545H8.145ZM23.145 12.8545V16.7695L32.145 25.7695V10.6045L26.145 16.6045V11.3545C26.145 10.5295 25.47 9.85453 24.645 9.85453H16.23L19.23 12.8545H23.145Z" fill="black"/>
</svg>
